<svg width="18" height="17" viewBox="0 0 18 17" fill="none" xmlns="http://www.w3.org/2000/svg">
<path d="M9 2.25C10.2375 2.25 11.25 3.2625 11.25 4.5C11.25 5.7375 10.2375 6.75 9 6.75C7.7625 6.75 6.75 5.7375 6.75 4.5C6.75 3.2625 7.7625 2.25 9 2.25ZM9 12.5C12.0375 12.5 15.525 13.9513 15.75 14.75H2.25C2.50875 13.94 5.97375 12.5 9 12.5ZM9 0C6.51375 0 4.5 2.01375 4.5 4.5C4.5 6.98625 6.51375 9 9 9C11.4862 9 13.5 6.98625 13.5 4.5C13.5 2.01375 11.4862 0 9 0ZM9 10.25C5.99625 10.25 0 11.7575 0 14.75V17H18V14.75C18 11.7575 12.0037 10.25 9 10.25Z" fill="black"/>
</svg>
